# xmcd
#
# Track frame offsets: 
#        150
#        13126
#        30075
#        47535
#        61875
#        73490
#        87880
#        98434
#        118026
#        128408
#        145496
#        155337
#        166414
#
# Disc length: 2474 seconds
#
# Revision: 8
# Processed by: cddbd v1.5.2PL0 Copyright (c) Steve Scherf et al.
# Submitted via: ExactAudioCopy v1.0b1
#
DISCID=a109a80d
DTITLE=Kentucky Headhunters - Best Of The Kentucky Headhunters
DYEAR=1994
DGENRE=Country
TTITLE0=Dumas Walker
TTITLE1=Walk Softly On This Heart Of Mine
TTITLE2=Rock N' Roll Angel
TTITLE3=Oh Lonesome Me
TTITLE4=The Ballad Of Davy Cockett
TTITLE5=Only Daddy That'll Walk The Line
TTITLE6=It's Chitlin' Time
TTITLE7=Spirit In The Sky
TTITLE8=Let's Work Together
TTITLE9=Honky Tonk Walkin'
TTITLE10=Dixie Fried
TTITLE11=Redneck Girl
TTITLE12=You've Go To Hide Your Love Away
EXTD=Best of Kentucky Head Hunters YEAR: 1994
EXTT0=
EXTT1=
EXTT2=
EXTT3=
EXTT4=
EXTT5=
EXTT6=
EXTT7=
EXTT8=
EXTT9=
EXTT10=
EXTT11=
EXTT12=
PLAYORDER=
